<svg xmlns="http://www.w3.org/2000/svg" viewBox="0 0 24 24" id="done">
    <path d="M8 22h8c2.2 0 4-1.8 4-4V9.9c0-.1 0-.2-.1-.3v-.1c0-.1-.1-.2-.2-.3l-7-7c-.1-.1-.2-.1-.3-.2h-.1c-.1 0-.2 0-.3-.1H8C5.8 2 4 3.8 4 6v12c0 2.2 1.8 4 4 4zm8.6-13H15c-1.1 0-2-.9-2-2V5.4L16.6 9zM6 6c0-1.1.9-2 2-2h3v3c0 2.2 1.8 4 4 4h3v7c0 1.1-.9 2-2 2H8c-1.1 0-2-.9-2-2V6z"></path>
    <path d="M11.3 17.7c.2.2.4.3.7.3h.2c.3-.1.6-.3.7-.5l2-4c.2-.5 0-1.1-.4-1.3-.5-.2-1.1 0-1.3.4l-1.4 2.8-1-1c-.4-.4-1-.4-1.4 0s-.4 1 0 1.4l1.9 1.9z"></path>
</svg>